<svg xmlns="http://www.w3.org/2000/svg" version="1.1" xmlns:xlink="http://www.w3.org/1999/xlink" xmlns:svgjs="http://svgjs.dev/svgjs" width="221.7146" height="203.98055"><svg version="1.1" id="SvgjsSvg1142" sodipodi:docname="stint-logo-2.svg" xml:space="preserve" inkscape:version="1.4 (e7c3feb1, 2024-10-09)" width="221.7146" height="203.98055" xmlns:inkscape="http://www.inkscape.org/namespaces/inkscape" xmlns:sodipodi="http://sodipodi.sourceforge.net/DTD/sodipodi-0.dtd" xmlns:xlink="http://www.w3.org/1999/xlink" xmlns="http://www.w3.org/2000/svg" xmlns:svg="http://www.w3.org/2000/svg"><defs id="SvgjsDefs1141"><linearGradient id="SvgjsLinearGradient1140" inkscape:collect="always"><stop style="stop-color:#455eea;stop-opacity:1;" offset="0" id="SvgjsStop1139"></stop><stop style="stop-color:#7ba6dc;stop-opacity:1;" offset="1" id="SvgjsStop1138"></stop></linearGradient><linearGradient inkscape:collect="always" xlink:href="#linearGradient2" id="SvgjsLinearGradient1137" x1="20.761335" y1="52.430157" x2="199.5791" y2="151.55046" gradientUnits="userSpaceOnUse"></linearGradient></defs><sodipodi:namedview id="SvgjsSodipodi:namedview1136" pagecolor="#505050" bordercolor="#eeeeee" borderopacity="1" inkscape:showpageshadow="0" inkscape:pageopacity="0" inkscape:pagecheckerboard="0" inkscape:deskcolor="#505050" inkscape:zoom="1.4847051" inkscape:cx="98.336026" inkscape:cy="113.49055" inkscape:window-width="1480" inkscape:window-height="916" inkscape:window-x="37" inkscape:window-y="38" inkscape:window-maximized="1" inkscape:current-layer="svg1"></sodipodi:namedview><g id="SvgjsG1135" style="stroke:url(#linearGradient3)"><path style="fill:none;stroke:url(#linearGradient3);stroke-width:5.33333;stroke-dasharray:none" id="SvgjsPath1134" sodipodi:type="arc" sodipodi:cx="110.40595" sodipodi:cy="101.99028" sodipodi:rx="99.304901" sodipodi:ry="99.304901" sodipodi:start="1.3457966" sodipodi:end="1.3456147" sodipodi:open="true" sodipodi:arc-type="arc" d="M 132.56148,198.79212 A 99.304901,99.304901 0 0 1 13.605122,124.15021 99.304901,99.304901 0 0 1 88.24162,5.1904571 99.304901,99.304901 0 0 1 207.20477,79.821545 99.304901,99.304901 0 0 1 132.57909,198.78809"></path><path style="fill:none;stroke:url(#linearGradient3);stroke-width:5.33333;stroke-dasharray:none" d="M 60.216766,187.06366 C -8.0182141,113.34622 87.797246,-13.780518 159.60484,15.148062 227.83982,88.865502 132.02435,215.99224 60.216766,187.06366 Z" id="SvgjsPath1133" sodipodi:nodetypes="ccc"></path><path style="fill:none;stroke:url(#linearGradient3);stroke-width:5.33333;stroke-dasharray:none" d="M 10.668306,101.59335 C 40.411896,5.6475822 198.41059,25.095622 209.24559,101.74934 179.502,197.69512 21.503306,178.24708 10.668306,101.59335 Z" id="SvgjsPath1132" sodipodi:nodetypes="ccc"></path><path style="fill:none;stroke:url(#linearGradient3);stroke-width:5.33333;stroke-dasharray:none" d="M 161.29759,187.06366 C 229.53258,113.34622 133.71711,-13.780518 61.909526,15.148062 -6.3254641,88.865502 89.490006,215.99224 161.29759,187.06366 Z" id="SvgjsPath1131" sodipodi:nodetypes="ccc"></path></g><path d="m 151.47126,187.66389 a 7.9221854,7.9221854 0 0 1 7.92219,-7.92218 7.9221854,7.9221854 0 0 1 7.92218,7.92218 7.9221854,7.9221854 0 0 1 -7.92218,7.92219 7.9221854,7.9221854 0 0 1 -7.92219,-7.92219 z" id="SvgjsPath1130" style="fill:#ffffff;stroke:#000000;stroke-width:6;stroke-dasharray:none;fill-opacity:1"></path><path d="m 70.763135,187.66386 a 7.9221854,7.9221854 0 0 0 -7.922185,-7.92218 7.9221854,7.9221854 0 0 0 -7.922185,7.92218 7.9221854,7.9221854 0 0 0 7.922185,7.92219 7.9221854,7.9221854 0 0 0 7.922185,-7.92219 z" id="SvgjsPath1129" style="fill:#ffffff;stroke:#000000;stroke-width:6;stroke-dasharray:none;fill-opacity:1"></path><path id="SvgjsPath1128" d="m 147.15039,148.85352 c -7.0775,0 -12.92187,5.84437 -12.92187,12.92187 0,7.0775 5.84437,12.92383 12.92187,12.92383 7.0775,0 12.92188,-5.84633 12.92188,-12.92383 0,-7.0775 -5.84438,-12.92187 -12.92188,-12.92187 z" style="fill:#ffffff;stroke:#000000;stroke-width:6;stroke-dasharray:none;fill-opacity:1"></path><path id="SvgjsPath1127" d="m 75.083984,148.85352 c -7.077502,0 -12.921875,5.84437 -12.921875,12.92187 0,7.0775 5.844373,12.92383 12.921875,12.92383 7.077503,0 12.921875,-5.84633 12.921875,-12.92383 0,-7.0775 -5.844372,-12.92187 -12.921875,-12.92187 z" style="fill:#ffffff;stroke:#000000;stroke-width:6;stroke-dasharray:none;fill-opacity:1"></path><path d="m 150.91352,15.935285 a 7.9221854,7.9221854 0 0 0 7.92219,7.922185 7.9221854,7.9221854 0 0 0 7.92218,-7.922185 7.9221854,7.9221854 0 0 0 -7.92218,-7.9221858 7.9221854,7.9221854 0 0 0 -7.92219,7.9221858 z" id="SvgjsPath1126" style="fill:#ffffff;stroke:#000000;stroke-width:6;stroke-dasharray:none;fill-opacity:1"></path><path id="SvgjsPath1125" d="M 146.59375 28.900391 C 139.51625 28.900391 133.67188 34.744763 133.67188 41.822266 C 133.67188 48.899768 139.51625 54.746094 146.59375 54.746094 C 153.67125 54.746094 159.51562 48.899768 159.51562 41.822266 C 159.51562 34.744763 153.67125 28.900391 146.59375 28.900391 z " style="fill:#ffffff;stroke:#000000;stroke-width:6;stroke-dasharray:none;fill-opacity:1"></path><g id="SvgjsG1124" transform="translate(-3.3339275,0.84761979)" style="fill:#ffffff;stroke:#000000;stroke-width:6;stroke-dasharray:none;fill-opacity:1"><path id="SvgjsPath1123" d="m 114.45111,77.196035 c -13.11492,0 -23.944796,10.829883 -23.944796,23.944815 0,13.11492 10.829876,23.94843 23.944796,23.94843 13.11493,0 23.94481,-10.83351 23.94481,-23.94843 0,-13.114932 -10.82988,-23.944815 -23.94481,-23.944815 z" style="stroke-width:6;fill:#ffffff;stroke:#000000;stroke-dasharray:none;fill-opacity:1"></path></g><path d="M 70.205335,15.935285 A 7.9221854,7.9221854 0 0 1 62.28315,23.85747 7.9221854,7.9221854 0 0 1 54.360964,15.935285 7.9221854,7.9221854 0 0 1 62.28315,8.0130992 7.9221854,7.9221854 0 0 1 70.205335,15.935285 Z" id="SvgjsPath1122" style="fill:#ffffff;stroke:#000000;stroke-width:6;stroke-dasharray:none;fill-opacity:1"></path><path id="SvgjsPath1121" d="M 74.525391 28.900391 C 67.447888 28.900391 61.603516 34.744763 61.603516 41.822266 C 61.603516 48.899768 67.447888 54.746094 74.525391 54.746094 C 81.602893 54.746094 87.447266 48.899768 87.447266 41.822266 C 87.447266 34.744763 81.602893 28.900391 74.525391 28.900391 z " style="fill:#ffffff;stroke:#000000;stroke-width:6;stroke-dasharray:none;fill-opacity:1"></path><path d="M 16.423546,108.20337 A 7.9221854,7.9221854 0 0 0 20.00168,97.586451 7.9221854,7.9221854 0 0 0 9.3847594,94.008319 7.9221854,7.9221854 0 0 0 5.8066272,104.62524 7.9221854,7.9221854 0 0 0 16.423546,108.20337 Z" id="SvgjsPath1120" style="fill:#ffffff;stroke:#000000;stroke-width:6;stroke-dasharray:none;fill-opacity:1"></path><path id="SvgjsPath1119" d="M 41.361328 88.201172 C 39.479499 88.216781 37.578264 88.645006 35.794922 89.529297 C 29.454151 92.673446 26.814837 100.50493 29.958984 106.8457 C 33.103135 113.18647 40.936572 115.82579 47.277344 112.68164 C 53.618115 109.53749 56.257433 101.70601 53.113281 95.365234 C 50.853426 90.807807 46.170448 88.161283 41.361328 88.201172 z " style="fill:#ffffff;stroke:#000000;stroke-width:6;stroke-dasharray:none;fill-opacity:1"></path><path d="m 205.29105,94.008376 a 7.9221854,7.9221854 0 0 0 -3.57813,10.616924 7.9221854,7.9221854 0 0 0 10.61692,3.57813 7.9221854,7.9221854 0 0 0 3.57814,-10.616919 7.9221854,7.9221854 0 0 0 -10.61693,-3.578135 z" id="SvgjsPath1118" style="fill:#ffffff;stroke:#000000;stroke-width:6;stroke-dasharray:none;fill-opacity:1"></path><path id="SvgjsPath1117" d="M 180.00586 88.203125 C 178.12403 88.218733 176.2228 88.645004 174.43945 89.529297 C 168.09868 92.673444 165.45937 100.50493 168.60352 106.8457 C 171.74766 113.18647 179.57915 115.82579 185.91992 112.68164 C 192.2607 109.5375 194.9 101.706 191.75586 95.365234 C 189.496 90.807807 184.81498 88.163237 180.00586 88.203125 z " style="fill:#ffffff;stroke:#000000;stroke-width:6;stroke-dasharray:none;fill-opacity:1"></path></svg><style>@media (prefers-color-scheme: light) { :root { filter: none; } }
@media (prefers-color-scheme: dark) { :root { filter: none; } }
</style></svg>