<?xml version="1.0" encoding="UTF-8" standalone="no"?>
<svg
   width="55.948803mm"
   height="54.654587mm"
   viewBox="0 0 55.948803 54.654589"
   version="1.1"
   id="svg8"
   inkscape:version="1.4 (e7c3feb1, 2024-10-09)"
   sodipodi:docname="logo-ipnsig.svg"
   inkscape:export-filename="C:\Users\juanfraire\Desktop\g2988.png"
   inkscape:export-xdpi="1003.2655"
   inkscape:export-ydpi="1003.2655"
   xmlns:inkscape="http://www.inkscape.org/namespaces/inkscape"
   xmlns:sodipodi="http://sodipodi.sourceforge.net/DTD/sodipodi-0.dtd"
   xmlns:xlink="http://www.w3.org/1999/xlink"
   xmlns="http://www.w3.org/2000/svg"
   xmlns:svg="http://www.w3.org/2000/svg"
   xmlns:rdf="http://www.w3.org/1999/02/22-rdf-syntax-ns#"
   xmlns:cc="http://creativecommons.org/ns#"
   xmlns:dc="http://purl.org/dc/elements/1.1/">
  <defs
     id="defs2">
    <linearGradient
       inkscape:collect="always"
       id="linearGradient2699">
      <stop
         id="stop2695"
         offset="0"
         style="stop-color:#6ac6e3;stop-opacity:1" />
      <stop
         id="stop2697"
         offset="1"
         style="stop-color:#4977d8;stop-opacity:1" />
    </linearGradient>
    <inkscape:perspective
       sodipodi:type="inkscape:persp3d"
       inkscape:vp_x="0 : -63.27956 : 1"
       inkscape:vp_y="0 : 1000.0001 : 0"
       inkscape:vp_z="340.30321 : -63.27956 : 1"
       inkscape:persp3d-origin="170.15163 : -102.59093 : 1"
       id="perspective2204" />
    <rect
       x="187.3902"
       y="216.27348"
       width="83.872917"
       height="48.947918"
       id="rect1262" />
    <rect
       x="-476.44937"
       y="292.47348"
       width="311.14999"
       height="123.29583"
       id="rect336" />
    <rect
       x="-67.668129"
       y="47.204742"
       width="87.324112"
       height="222.37305"
       id="rect215" />
    <clipPath
       clipPathUnits="userSpaceOnUse"
       id="clipPath872">
      <rect
         style="opacity:1;fill:#ffffff;fill-opacity:1;stroke:none;stroke-width:2.406;stroke-linecap:round;stroke-linejoin:round;stroke-miterlimit:4;stroke-dasharray:none;stroke-dashoffset:0;stroke-opacity:1;paint-order:fill markers stroke"
         id="rect874"
         width="64.679222"
         height="59.868374"
         x="-239.4735"
         y="-101.2316"
         ry="2.4216096" />
    </clipPath>
    <pattern
       id="EMFhbasepattern"
       patternUnits="userSpaceOnUse"
       width="6"
       height="6"
       x="0"
       y="0" />
    <pattern
       id="EMFhbasepattern-7"
       patternUnits="userSpaceOnUse"
       width="6"
       height="6"
       x="0"
       y="0" />
    <pattern
       id="EMFhbasepattern-4"
       patternUnits="userSpaceOnUse"
       width="6"
       height="6"
       x="0"
       y="0" />
    <rect
       x="-67.668129"
       y="47.204742"
       width="373.27228"
       height="86.628418"
       id="rect215-7" />
    <rect
       x="-67.668129"
       y="47.204742"
       width="87.324112"
       height="208.78548"
       id="rect228" />
    <rect
       x="-476.44937"
       y="292.47348"
       width="311.14999"
       height="123.29583"
       id="rect336-2" />
    <rect
       x="-476.44937"
       y="292.47348"
       width="311.14999"
       height="123.29583"
       id="rect377" />
    <rect
       x="-67.668129"
       y="47.204742"
       width="87.324112"
       height="208.78548"
       id="rect215-9" />
    <rect
       x="-67.668129"
       y="47.204742"
       width="87.324112"
       height="208.78548"
       id="rect1339" />
    <rect
       x="187.3902"
       y="216.27348"
       width="83.872917"
       height="48.947918"
       id="rect1262-2" />
    <rect
       x="187.3902"
       y="216.27348"
       width="83.872917"
       height="48.947918"
       id="rect1452" />
    <rect
       x="187.3902"
       y="216.27348"
       width="83.872917"
       height="48.947918"
       id="rect1262-5" />
    <rect
       x="187.3902"
       y="216.27348"
       width="83.872917"
       height="48.947918"
       id="rect1481" />
    <rect
       x="187.3902"
       y="216.27348"
       width="83.872917"
       height="48.947918"
       id="rect1262-4" />
    <rect
       x="187.3902"
       y="216.27348"
       width="83.872917"
       height="48.947918"
       id="rect1542" />
    <rect
       x="187.3902"
       y="216.27348"
       width="83.872917"
       height="48.947918"
       id="rect1262-6" />
    <rect
       x="187.3902"
       y="216.27348"
       width="83.872917"
       height="48.947918"
       id="rect1183" />
    <rect
       x="187.3902"
       y="216.27348"
       width="83.872917"
       height="48.947918"
       id="rect1262-5-5" />
    <rect
       x="187.3902"
       y="216.27348"
       width="83.872917"
       height="48.947918"
       id="rect1193" />
    <rect
       x="187.3902"
       y="216.27348"
       width="83.872917"
       height="48.947918"
       id="rect1262-4-0" />
    <rect
       x="187.3902"
       y="216.27348"
       width="83.872917"
       height="48.947918"
       id="rect1203" />
    <rect
       x="187.3902"
       y="216.27348"
       width="83.872917"
       height="48.947918"
       id="rect1262-6-4" />
    <rect
       x="187.3902"
       y="216.27348"
       width="83.872917"
       height="48.947918"
       id="rect2068" />
    <rect
       x="187.3902"
       y="216.27348"
       width="83.872917"
       height="48.947918"
       id="rect1262-6-6" />
    <rect
       x="187.3902"
       y="216.27348"
       width="83.872917"
       height="48.947918"
       id="rect2233" />
    <rect
       x="-67.668129"
       y="47.204742"
       width="176.75079"
       height="300.57288"
       id="rect215-7-9" />
    <rect
       x="-67.668129"
       y="47.204742"
       width="373.27228"
       height="86.628418"
       id="rect2710" />
    <rect
       x="-67.668129"
       y="47.204742"
       width="177.12228"
       height="26.074554"
       id="rect215-7-9-6" />
    <rect
       x="-67.668129"
       y="47.204742"
       width="176.75079"
       height="296.89526"
       id="rect2772" />
    <pattern
       id="EMFhbasepattern-49"
       patternUnits="userSpaceOnUse"
       width="6"
       height="6"
       x="0"
       y="0" />
    <rect
       x="-67.668129"
       y="47.204742"
       width="203.27496"
       height="27.541059"
       id="rect215-7-9-6-0" />
    <rect
       x="-67.668129"
       y="47.204742"
       width="177.12228"
       height="26.074554"
       id="rect2958" />
    <rect
       x="187.3902"
       y="216.27348"
       width="83.872917"
       height="48.947918"
       id="rect1262-6-6-1" />
    <rect
       x="187.3902"
       y="216.27348"
       width="83.872917"
       height="48.947918"
       id="rect1888" />
    <rect
       x="187.3902"
       y="216.27348"
       width="83.872917"
       height="48.947918"
       id="rect1890" />
    <rect
       x="187.3902"
       y="216.27348"
       width="83.872917"
       height="48.947918"
       id="rect1892" />
    <rect
       x="187.3902"
       y="216.27348"
       width="83.872917"
       height="48.947918"
       id="rect1898" />
    <rect
       x="187.3902"
       y="216.27348"
       width="83.872917"
       height="48.947918"
       id="rect1900" />
    <rect
       x="187.3902"
       y="216.27348"
       width="83.872917"
       height="48.947918"
       id="rect1909" />
    <rect
       x="187.3902"
       y="216.27348"
       width="83.872917"
       height="48.947918"
       id="rect1911" />
    <rect
       x="-67.668129"
       y="47.204742"
       width="185.04881"
       height="236.55943"
       id="rect215-7-9-1" />
    <rect
       x="-67.668129"
       y="47.204742"
       width="176.75079"
       height="300.57288"
       id="rect1888-3" />
    <rect
       x="-67.668129"
       y="47.204742"
       width="177.12228"
       height="26.074554"
       id="rect215-7-9-6-5" />
    <rect
       x="-67.668129"
       y="47.204742"
       width="177.12228"
       height="26.074554"
       id="rect1891" />
    <rect
       x="-67.668129"
       y="47.204742"
       width="203.27496"
       height="27.541059"
       id="rect215-7-9-6-0-5" />
    <rect
       x="-67.668129"
       y="47.204742"
       width="203.27496"
       height="27.541059"
       id="rect1894" />
    <rect
       x="-67.668129"
       y="47.204742"
       width="169.83574"
       height="51.434124"
       id="rect215-7-9-1-9" />
    <rect
       x="-67.668129"
       y="47.204742"
       width="185.04881"
       height="236.55943"
       id="rect2536" />
    <rect
       x="187.3902"
       y="216.27348"
       width="83.872917"
       height="48.947918"
       id="rect1262-6-6-1-6" />
    <rect
       x="187.3902"
       y="216.27348"
       width="83.872917"
       height="48.947918"
       id="rect2667" />
    <rect
       x="187.3902"
       y="216.27348"
       width="83.872917"
       height="48.947918"
       id="rect1262-6-6-1-2" />
    <rect
       x="187.3902"
       y="216.27348"
       width="83.872917"
       height="48.947918"
       id="rect2736" />
    <radialGradient
       inkscape:collect="always"
       xlink:href="#linearGradient2699"
       id="radialGradient1171"
       gradientUnits="userSpaceOnUse"
       gradientTransform="matrix(1,0,0,1.059062,940.00104,286.1138)"
       cx="200.39574"
       cy="161.97548"
       fx="200.39574"
       fy="161.97548"
       r="25.803379" />
  </defs>
  <sodipodi:namedview
     id="base"
     pagecolor="#ffffff"
     bordercolor="#666666"
     borderopacity="1.0"
     inkscape:pageopacity="0.0"
     inkscape:pageshadow="2"
     inkscape:zoom="1.186946"
     inkscape:cx="54.762388"
     inkscape:cy="173.1334"
     inkscape:document-units="mm"
     inkscape:current-layer="layer1"
     showgrid="false"
     inkscape:window-width="1472"
     inkscape:window-height="916"
     inkscape:window-x="41"
     inkscape:window-y="38"
     inkscape:window-maximized="1"
     inkscape:document-rotation="0"
     inkscape:snap-global="false"
     fit-margin-top="5"
     fit-margin-left="5"
     fit-margin-right="5"
     fit-margin-bottom="5"
     showguides="true"
     inkscape:guide-bbox="true"
     inkscape:showpageshadow="0"
     inkscape:pagecheckerboard="true"
     inkscape:deskcolor="#505050"
     showborder="true"
     inkscape:antialias-rendering="true">
    <sodipodi:guide
       position="-1118.9973,-87.614602"
       orientation="1,0"
       id="guide2049"
       inkscape:locked="false" />
    <sodipodi:guide
       position="-1027.1818,-71.784332"
       orientation="1,0"
       id="guide2051"
       inkscape:locked="false" />
    <sodipodi:guide
       position="-934.66257,-114.35016"
       orientation="1,0"
       id="guide2053"
       inkscape:locked="false" />
    <sodipodi:guide
       position="-669.94541,-39.94791"
       orientation="1,0"
       id="guide2757"
       inkscape:locked="false" />
    <sodipodi:guide
       position="-575.10829,-188.86052"
       orientation="0,-1"
       id="guide2947"
       inkscape:locked="false" />
    <sodipodi:guide
       position="-493.7675,100.68283"
       orientation="1,0"
       id="guide2978"
       inkscape:locked="false" />
  </sodipodi:namedview>
  <metadata
     id="metadata5">
    <rdf:RDF>
      <cc:Work
         rdf:about="">
        <dc:format>image/svg+xml</dc:format>
        <dc:type
           rdf:resource="http://purl.org/dc/dcmitype/StillImage" />
      </cc:Work>
    </rdf:RDF>
  </metadata>
  <g
     inkscape:label="Layer 1"
     inkscape:groupmode="layer"
     id="layer1"
     transform="translate(-1117.6087,-430.3286)">
    <text
       xml:space="preserve"
       style="font-style:normal;font-variant:normal;font-weight:normal;font-stretch:normal;font-size:5.48874px;line-height:1.25;font-family:'Times New Roman';-inkscape-font-specification:'Times New Roman, ';letter-spacing:0px;word-spacing:0px;fill:#000000;fill-opacity:1;stroke:none;stroke-width:0.205827"
       x="-38.751259"
       y="77.039619"
       id="text2998-5-6"><tspan
         sodipodi:role="line"
         x="-38.751259"
         y="77.039619"
         style="font-style:normal;font-variant:normal;font-weight:normal;font-stretch:normal;font-size:5.48874px;font-family:Arimo;-inkscape-font-specification:Arimo;text-align:center;text-anchor:middle;stroke-width:0.205827"
         id="tspan202" /></text>
    <path
       id="path1155"
       style="fill:url(#radialGradient1171);fill-opacity:1;stroke-width:0.122487"
       d="m 1138.9479,430.3286 c -5.796,0.004 -11.5691,1.85264 -16.4176,5.48339 -1.3245,0.99184 -2.7926,2.30908 -2.7926,2.50579 0,0.1665 0.7385,0.94413 0.8966,0.94413 0.062,0 0.4543,-0.31839 0.8708,-0.70797 3.7789,-3.53508 9.01,-5.93296 14.3716,-6.58771 1.9954,-0.24366 5.2869,-0.1848 7.1319,0.12764 4.869,0.82456 9.1035,2.79864 12.8018,5.9676 4.4017,3.77174 7.3244,8.82129 8.5044,14.6668 h 1.4754 c -0.1119,-0.59436 -0.248,-1.207 -0.4166,-1.87327 -1.8419,-7.28129 -6.6707,-13.5163 -13.2855,-17.15451 -4.1105,-2.26087 -8.6322,-3.37461 -13.1402,-3.37189 z m 0.082,6.05958 c -3.2477,-0.005 -4.4785,0.17868 -6.9862,1.04335 -3.1258,1.07785 -5.5642,2.57828 -7.938,4.88497 -2.3289,2.26315 -3.8809,4.58906 -5.0834,7.61608 -1.7403,4.38097 -1.8823,9.74989 -0.3787,14.33504 0.8402,2.56247 2.6174,5.62877 4.4136,7.61555 l 0.7555,0.83561 0.4739,-0.4625 c 0.2605,-0.25439 0.4733,-0.51143 0.4733,-0.57103 0,-0.0596 -0.3326,-0.47518 -0.7395,-0.92397 -4.0641,-4.48271 -5.8263,-11.08231 -4.5774,-17.14366 0.8602,-4.17475 3.2602,-8.27818 6.4244,-10.98434 5.4385,-4.65132 12.4475,-6.07522 19.2866,-3.91759 1.443,0.45522 4.256,1.89537 5.4746,2.80293 3.8363,2.85691 6.3724,6.6041 7.5955,11.20965 h 1.4991 c -0.072,-0.29734 -0.1508,-0.59832 -0.2419,-0.9126 -2.2566,-7.78735 -8.3276,-13.4117 -16.3478,-15.14482 -1.1221,-0.24253 -1.6458,-0.27867 -4.1036,-0.28267 z m -0.061,8.63462 v 0.71882 0.71882 l 0.8268,0.0847 c 3.6755,0.37721 6.5913,2.14316 8.5033,5.14955 0.2091,0.32871 0.3992,0.67779 0.5762,1.03353 h 1.6201 c -0.6703,-1.5563 -1.6809,-2.99329 -2.9957,-4.23643 -2.1379,-2.02135 -4.6655,-3.1288 -7.7654,-3.40186 z m -10.9839,1.69343 -0.6537,0.71314 c -1.8174,1.98208 -3.2394,5.0041 -3.6767,7.81399 -0.1892,1.21494 -0.1594,3.86253 0.057,5.0922 0.8412,4.7848 4.1408,9.13477 8.5105,11.21998 1.1381,0.5431 2.8366,1.09031 4.1129,1.32551 v 0 c 0.6945,0.1277 1.5506,0.16636 2.9394,0.13177 2.7447,-0.0683 4.1654,-0.40461 6.5159,-1.54254 1.1336,-0.54881 3.3256,-2.05465 3.868,-2.6572 0.2107,-0.23413 0.2017,-0.25713 -0.2853,-0.74414 l -0.5023,-0.5023 -0.7586,0.64337 c -2.6799,2.27345 -5.7012,3.38843 -9.1803,3.38843 -3.9497,0 -7.3313,-1.44741 -10.0878,-4.3186 -1.9405,-2.02125 -3.1374,-4.3127 -3.6742,-7.0342 -0.2813,-1.42737 -0.2768,-3.90693 0.01,-5.2803 0.5403,-2.59305 1.4419,-4.3822 3.4582,-6.86108 l 0.3297,-0.40566 -0.4909,-0.49092 z m 10.5994,1.25419 c -0.8463,0.0162 -1.6619,0.13329 -2.372,0.35605 -3.4457,1.08091 -5.9396,3.75706 -6.7344,7.22643 -0.2676,1.16789 -0.2396,3.17891 0.061,4.35943 0.977,3.84475 4.2012,6.78334 8.0217,7.3117 0.2021,0.028 0.6015,0.0591 0.8878,0.0692 l 0.5209,0.0186 v -0.73535 -0.73484 h -0.5318 c -1.6376,0 -3.9246,-1.03863 -5.2797,-2.39779 -0.9871,-0.98997 -1.5364,-1.84788 -2.0056,-3.13417 -0.2969,-0.81367 -0.3279,-1.06018 -0.3281,-2.61328 0,-1.97525 0.21,-2.85892 1.0061,-4.22403 0.5662,-0.97074 1.9455,-2.37091 2.8763,-2.91972 2.9318,-1.7287 7.0242,-1.41296 9.4583,0.72967 l 0.5809,0.5116 0.5038,-0.50385 0.5039,-0.50384 -0.2382,-0.26613 c -0.4404,-0.49265 -1.8991,-1.43946 -2.787,-1.80868 -1.2366,-0.51429 -2.7329,-0.76799 -4.1434,-0.74104 z m 19.6282,14.61358 c -0.8169,3.06679 -2.2328,5.74712 -4.3046,8.14472 l -0.879,1.01699 0.4666,0.47801 c 0.2565,0.26265 0.5062,0.47749 0.555,0.47749 0.1733,0 1.847,-2.03896 2.6143,-3.18482 1.4533,-2.17014 2.4681,-4.48751 3.0417,-6.93239 z m 6.0958,0 c -0.058,0.31759 -0.1195,0.62834 -0.1876,0.92501 -2.5434,11.07384 -12.3227,19.27568 -23.7618,19.92901 l -1.3901,0.0791 v 0.73329 0.73277 l 1.3167,-0.0842 c 3.9539,-0.2531 7.2159,-1.10055 10.6257,-2.76056 3.0201,-1.47032 5.1731,-3.03946 7.5938,-5.53403 3.4442,-3.54934 5.6567,-7.46896 6.8554,-12.14603 0.1706,-0.66537 0.3082,-1.27837 0.4217,-1.8743 z" />
    <path
       style="font-size:10.5833px;line-height:1.25;font-family:Vudotronic;-inkscape-font-specification:Vudotronic;text-align:end;letter-spacing:0px;word-spacing:0px;text-anchor:end;white-space:pre;fill:#ffffff"
       d="m 238.19086,225.66739 v -6.71791 h 1.55029 v 6.71791 z m 6.71792,-5.16762 h -4.65087 v -1.55029 h 4.65087 q 2.06705,0 2.06705,2.06705 0,2.06705 -2.06705,2.06705 h -3.10058 v 2.58381 h -1.55029 v -4.1341 h 4.65087 q 0.51676,0 0.51676,-0.51676 0,-0.51676 -0.51676,-0.51676 z m 4.1341,1.31258 v 3.85504 h -1.55029 v -7.15716 l 5.16763,4.2943 v -3.85505 h 1.55028 v 7.15716 z m 10.33525,3.85504 h -4.65086 v -1.55028 h 4.65086 q 0.51676,0 0.51676,-0.51677 0,-0.51676 -0.51676,-0.51676 h -2.58381 q -2.06705,0 -2.06705,-2.06705 0,-2.06705 2.06705,-2.06705 h 4.65086 v 1.55029 h -4.65086 q -0.51677,0 -0.51677,0.51676 0,0.51676 0.51677,0.51676 h 2.58381 q 2.06705,0 2.06705,2.06705 0,2.06705 -2.06705,2.06705 z m 2.58381,0 v -6.71791 h 1.55029 v 6.71791 z m 4.65087,-6.71791 h 4.1341 v 1.55029 h -4.1341 q -1.03353,0 -1.03353,1.03352 v 1.55029 q 0,1.03353 1.03353,1.03353 h 2.58381 v -1.03353 h -2.06705 v -1.55029 h 3.61734 v 4.1341 h -4.1341 q -2.58382,0 -2.58382,-2.58381 v -1.55029 q 0,-2.58381 2.58382,-2.58381 z"
       id="text1161"
       transform="matrix(1.0547944,0,0,1.0547944,887.97515,223.1662)"
       aria-label="IPNSIG" />
    <path
       style="fill:#ffffff;stroke-width:0.00768668"
       d="m 1134.9066,446.08536 c -0.013,-1.9e-4 -0.086,-0.039 -0.181,-0.0955 -0.3412,-0.20222 -0.6128,-0.34103 -0.803,-0.41033 -0.273,-0.0995 -0.544,-0.13202 -0.8469,-0.10166 -0.1992,0.02 -0.511,0.0898 -0.8523,0.19098 -0.087,0.0258 -0.1671,0.0452 -0.178,0.0432 -0.024,-0.004 -0.045,-0.0292 -0.046,-0.0557 -8e-4,-0.0108 0.014,-0.0435 0.033,-0.0732 0.088,-0.13787 0.2739,-0.47257 0.3396,-0.60997 0.2936,-0.6138 0.305,-1.01672 0.054,-1.89349 -0.025,-0.0876 -0.054,-0.18476 -0.063,-0.21605 -0.018,-0.0582 -0.016,-0.0872 0.01,-0.10534 0.026,-0.0204 0.055,-0.01 0.1913,0.0729 0.212,0.12788 0.403,0.23237 0.5683,0.31073 0.2623,0.12434 0.4438,0.18235 0.6582,0.21035 0.3355,0.0438 0.6695,-0.004 1.3055,-0.1876 0.1475,-0.0425 0.1664,-0.0461 0.1854,-0.0352 0.016,0.01 0.022,0.0174 0.028,0.0356 0.01,0.0205 0,0.0364 -0.053,0.12465 -0.317,0.54016 -0.4407,0.80725 -0.5061,1.09309 -0.041,0.17922 -0.052,0.38422 -0.032,0.58738 0.021,0.21418 0.1045,0.57787 0.2138,0.93425 0.041,0.13476 0.035,0.18271 -0.022,0.18079 z"
       id="path1163"
       sodipodi:nodetypes="csssssssssssssssscsssscc" />
    <path
       style="fill:#ffffff;stroke-width:0.0037008"
       d="m 1153.1311,451.68005 c 0,-0.004 -0.014,-0.043 -0.025,-0.0953 -0.04,-0.18674 -0.08,-0.32811 -0.1174,-0.41798 -0.054,-0.12903 -0.1311,-0.23551 -0.2409,-0.33259 -0.072,-0.0643 -0.1987,-0.15133 -0.346,-0.23893 -0.038,-0.0224 -0.071,-0.0443 -0.073,-0.0488 -0.01,-0.01 0,-0.0253 0.01,-0.0344 0,-0.004 0.02,-0.009 0.037,-0.0122 0.077,-0.0141 0.2566,-0.0576 0.3266,-0.0793 0.313,-0.0968 0.4591,-0.22449 0.6869,-0.5999 0.023,-0.0375 0.048,-0.0794 0.056,-0.093 0.015,-0.0249 0.026,-0.0337 0.039,-0.0322 0.015,0.003 0.022,0.0159 0.037,0.0915 0.024,0.11674 0.05,0.21842 0.076,0.30246 0.042,0.13338 0.081,0.21648 0.1408,0.30146 0.094,0.13292 0.2203,0.23531 0.493,0.40021 0.063,0.0383 0.071,0.0437 0.073,0.054 10e-4,0.009 10e-4,0.0134 0,0.0214 0,0.008 -0.013,0.0115 -0.061,0.022 -0.2946,0.0645 -0.4295,0.10803 -0.5519,0.17833 -0.077,0.044 -0.1529,0.10713 -0.2182,0.18059 -0.069,0.0777 -0.1701,0.2258 -0.2603,0.38096 -0.034,0.0586 -0.053,0.0722 -0.071,0.0512 z"
       id="path1165"
       sodipodi:nodetypes="csssssssssssssssscsssscc" />
    <path
       style="fill:#ffffff;stroke-width:0.00370081"
       d="m 1135.2948,478.62721 c 0,-0.002 -0.029,-0.0346 -0.059,-0.0791 -0.1065,-0.15855 -0.1958,-0.27509 -0.2642,-0.34455 -0.098,-0.0998 -0.2091,-0.17002 -0.3471,-0.21942 -0.091,-0.0331 -0.2407,-0.0667 -0.41,-0.0934 -0.043,-0.007 -0.082,-0.015 -0.086,-0.0181 -0.01,-0.007 -0.013,-0.022 -0.01,-0.0338 0,-0.005 0.015,-0.0159 0.029,-0.0249 0.067,-0.0418 0.2169,-0.14873 0.2739,-0.19488 0.2546,-0.20604 0.343,-0.37887 0.4151,-0.81201 0.01,-0.0433 0.015,-0.0915 0.017,-0.10703 0,-0.0287 0.012,-0.041 0.024,-0.0445 0.015,-0.003 0.026,0.007 0.068,0.0713 0.066,0.0995 0.1272,0.1844 0.1828,0.25268 0.088,0.10837 0.1552,0.17109 0.2426,0.22768 0.1368,0.0885 0.2918,0.13674 0.6063,0.18863 0.073,0.0121 0.082,0.0143 0.088,0.023 0,0.008 0.01,0.0121 0,0.0214 0,0.009 -0.01,0.0156 -0.049,0.0432 -0.2496,0.16924 -0.3587,0.25971 -0.4463,0.37044 -0.055,0.0693 -0.1022,0.15622 -0.1355,0.24867 -0.035,0.0976 -0.074,0.27282 -0.1004,0.45039 -0.01,0.0671 -0.022,0.0867 -0.047,0.074 z"
       id="path1167"
       sodipodi:nodetypes="csssssssssssssssscsssscc" />
  </g>
</svg>
