<?xml version="1.0" encoding="UTF-8" standalone="no"?><!DOCTYPE svg PUBLIC "-//W3C//DTD SVG 1.1//EN" "http://www.w3.org/Graphics/SVG/1.1/DTD/svg11.dtd"><svg width="100%" height="100%" viewBox="0 0 135 83" version="1.1" xmlns="http://www.w3.org/2000/svg" xmlns:xlink="http://www.w3.org/1999/xlink" xml:space="preserve" xmlns:serif="http://www.serif.com/" style="fill-rule:evenodd;clip-rule:evenodd;stroke-linejoin:round;stroke-miterlimit:2;"><g id="g3196"><g id="text901-02-5"><path id="path1821" d="M25.24,60.022l4.11,-0l0,17.289l-4.11,-0l0,-9.939l-5.263,9.373l-2.761,0l-5.263,-8.981l-0,9.547l-4.11,-0l-0,-16.615l4.11,-1.109l6.676,12.222l6.611,-11.787Z" style="fill:#fff;fill-rule:nonzero;"/><rect id="path1823" x="32.678" y="60.022" width="4.11" height="17.289" style="fill:#fff;fill-rule:nonzero;"/><path id="path1825" d="M45.639,70.504c-2.32,0 -4.045,-0.739 -5.176,-2.218c-0.681,-0.885 -1.022,-1.885 -1.022,-3.001c-0,-1.508 0.565,-2.762 1.696,-3.762c1.146,-1.001 2.646,-1.501 4.502,-1.501l11.743,-0l-1.109,3.675l-10.591,0c-0.884,0 -1.471,0.326 -1.761,0.979c-0.087,0.203 -0.131,0.406 -0.131,0.609c0,0.623 0.305,1.08 0.914,1.37c0.29,0.13 0.616,0.196 0.978,0.196l5.959,-0c2.218,-0 3.9,0.71 5.045,2.131c0.725,0.913 1.087,1.95 1.087,3.11c0,1.507 -0.565,2.754 -1.696,3.74c-1.131,0.986 -2.609,1.479 -4.436,1.479l-12.2,-0l1.109,-3.675l11.047,-0c0.899,-0 1.486,-0.319 1.762,-0.957c0.087,-0.189 0.13,-0.384 0.13,-0.587c0,-0.624 -0.29,-1.08 -0.869,-1.37c-0.305,-0.145 -0.646,-0.218 -1.023,-0.218l-5.958,0Z" style="fill:#fff;fill-rule:nonzero;"/><path id="path1827" d="M65.733,70.504c-2.32,0 -4.045,-0.739 -5.176,-2.218c-0.681,-0.885 -1.022,-1.885 -1.022,-3.001c0,-1.508 0.565,-2.762 1.696,-3.762c1.146,-1.001 2.646,-1.501 4.502,-1.501l11.743,-0l-1.109,3.675l-10.591,0c-0.884,0 -1.471,0.326 -1.761,0.979c-0.087,0.203 -0.131,0.406 -0.131,0.609c0,0.623 0.305,1.08 0.914,1.37c0.29,0.13 0.616,0.196 0.978,0.196l5.959,-0c2.218,-0 3.9,0.71 5.045,2.131c0.725,0.913 1.088,1.95 1.088,3.11c-0,1.507 -0.566,2.754 -1.697,3.74c-1.13,0.986 -2.609,1.479 -4.436,1.479l-12.2,-0l1.109,-3.675l11.048,-0c0.898,-0 1.486,-0.319 1.761,-0.957c0.087,-0.189 0.131,-0.384 0.131,-0.587c-0,-0.624 -0.29,-1.08 -0.87,-1.37c-0.305,-0.145 -0.645,-0.218 -1.022,-0.218l-5.959,0Z" style="fill:#fff;fill-rule:nonzero;"/><rect id="path1829" x="80.347" y="60.022" width="4.11" height="17.289" style="fill:#fff;fill-rule:nonzero;"/><path id="path1831" d="M90.894,68.677c0,2.479 0.906,4.067 2.718,4.763c0.856,0.333 1.943,0.5 3.262,0.5c3.089,0 4.952,-1.058 5.589,-3.175c0.174,-0.623 0.261,-1.319 0.261,-2.088c0,-2.827 -1.217,-4.516 -3.653,-5.067c-0.652,-0.145 -1.385,-0.217 -2.197,-0.217c-2.798,-0 -4.603,0.797 -5.414,2.392c-0.377,0.768 -0.566,1.732 -0.566,2.892Zm16.18,0c-0,3.393 -1.312,5.872 -3.936,7.438c-1.755,1.044 -3.915,1.565 -6.481,1.565c-3.146,0 -5.64,-0.84 -7.481,-2.522c-1.754,-1.609 -2.631,-3.77 -2.631,-6.481c-0,-3.204 1.189,-5.618 3.566,-7.241c1.769,-1.189 3.951,-1.784 6.546,-1.784c3.422,0 6.067,0.892 7.938,2.675c1.652,1.58 2.479,3.697 2.479,6.35Z" style="fill:#fff;fill-rule:nonzero;"/><path id="path1833" d="M122.297,60.022l4.11,-0l-0,17.289l-4.11,-0l-9.047,-11.396l-0,11.396l-4.11,-0l-0,-16.615l4.11,-1.109l9.047,11.395l-0,-10.96Z" style="fill:#fff;fill-rule:nonzero;"/></g><g id="g3164"><path id="path903-8-2" d="M82.426,4.82c-8.182,-0.002 -15.886,3.852 -20.79,10.4c-7.165,9.568 -6.873,22.79 0.708,32.032c1.216,-4.346 4.599,-7.545 7.42,-10.367c-2.863,4.098 -3.993,10.449 -4.389,13.488c0.405,0.353 0.821,0.693 1.248,1.02c0.777,0.596 1.587,1.147 2.427,1.651c1.109,-1.71 2.519,-3.21 2.331,-8.028c0.924,2.447 0.277,6.304 -0.406,9.076c0.968,0.476 1.965,0.89 2.985,1.242c4.789,-7.429 7.701,-33.755 7.701,-33.755c-0.18,9.9 -0.305,23.777 -0.722,35.134c0.983,0.042 1.949,0.051 2.885,-0c-0.409,-11.357 -0.48,-25.233 -0.644,-35.134c0,0 2.912,26.323 7.701,33.753c1.02,-0.351 2.016,-0.766 2.985,-1.242c-0.684,-2.772 -1.33,-6.628 -0.406,-9.074c-0.188,4.816 1.222,6.317 2.331,8.026c1.3,-0.782 2.53,-1.676 3.674,-2.672c-0.396,-3.04 -1.525,-9.388 -4.387,-13.485c2.82,2.821 6.202,6.02 7.419,10.364c0.119,-0.145 0.236,-0.291 0.352,-0.439l0.695,-0.928c8.272,-11.575 5.689,-27.652 -5.794,-36.053c-4.447,-3.253 -9.814,-5.008 -15.324,-5.009Zm-0.007,0.451c0,0 1.121,8.222 4.959,13.3c-2.464,-1.938 -3.779,-1.876 -4.959,-1.876c-1.179,-0 -2.494,-0.062 -4.959,1.876c3.839,-5.078 4.959,-13.3 4.959,-13.3Z" style="fill:#ff5435;fill-rule:nonzero;"/></g></g></svg>