<?xml version="1.0" encoding="UTF-8" standalone="no"?>
<!--Scalable Vector Graphic-->

<svg
   version="1.1"
   id="svg1"
   sodipodi:docname="stint-logo-3.svg"
   xml:space="preserve"
   inkscape:version="1.4 (e7c3feb1, 2024-10-09)"
   width="221.7146"
   height="203.98055"
   xmlns:inkscape="http://www.inkscape.org/namespaces/inkscape"
   xmlns:sodipodi="http://sodipodi.sourceforge.net/DTD/sodipodi-0.dtd"
   xmlns:xlink="http://www.w3.org/1999/xlink"
   xmlns="http://www.w3.org/2000/svg"
   xmlns:svg="http://www.w3.org/2000/svg"><defs
     id="defs1"><linearGradient
       id="linearGradient2"
       inkscape:collect="always"><stop
         style="stop-color:#455eea;stop-opacity:1;"
         offset="0"
         id="stop2" /><stop
         style="stop-color:#7ba6dc;stop-opacity:1;"
         offset="1"
         id="stop3" /></linearGradient><linearGradient
       inkscape:collect="always"
       xlink:href="#linearGradient2"
       id="linearGradient1"
       gradientUnits="userSpaceOnUse"
       x1="20.761335"
       y1="52.430157"
       x2="199.5791"
       y2="151.55046" /></defs><sodipodi:namedview
     id="namedview1"
     pagecolor="#505050"
     bordercolor="#eeeeee"
     borderopacity="1"
     inkscape:showpageshadow="0"
     inkscape:pageopacity="0"
     inkscape:pagecheckerboard="0"
     inkscape:deskcolor="#505050"
     inkscape:zoom="1.4847051"
     inkscape:cx="98.336026"
     inkscape:cy="113.49055"
     inkscape:window-width="1480"
     inkscape:window-height="916"
     inkscape:window-x="39"
     inkscape:window-y="38"
     inkscape:window-maximized="1"
     inkscape:current-layer="svg1" /><path
     id="path31"
     style="fill:url(#linearGradient1)"
     d="M 112.56445 0.021484375 C 111.09206 -0.0089892918 109.61412 -0.0068417453 108.13281 0.02734375 C 101.36111 0.1836203 94.5045 1.0215114 87.646484 2.5917969 C 78.443669 4.6989729 69.835331 8.015326 61.912109 12.296875 C 61.579055 12.424266 61.244208 12.540038 60.912109 12.673828 L 60.359375 12.898438 L 59.953125 13.335938 C 59.930962 13.359881 59.910802 13.384248 59.888672 13.408203 C 28.932786 31.060306 9.197833 63.986598 8.4511719 99.822266 C 8.3447513 100.15307 8.2244688 100.47122 8.1210938 100.80469 L 7.9433594 101.375 L 8.0273438 101.9668 C 8.1439321 102.79162 8.3022304 103.60019 8.4511719 104.41211 C 8.6160926 111.13442 9.4476267 117.93929 11.005859 124.74609 C 23.565645 179.61079 78.290985 213.94793 133.15625 201.39062 L 131.9668 196.19336 C 114.25638 200.24683 96.581246 199.14953 80.492188 193.90039 C 90.655342 194.15702 100.90001 191.98049 110.75781 187.91016 C 120.33977 191.86659 130.2869 194.03001 140.16992 193.91211 C 137.49626 194.77415 134.77427 195.55038 131.98438 196.18945 L 133.17383 201.38672 C 188.03681 188.81945 222.36947 134.09012 209.80469 79.226562 C 203.31959 50.909657 185.59655 28.070109 162.42578 14.316406 C 162.13285 13.991299 161.86151 13.658968 161.5625 13.335938 L 161.15625 12.898438 L 160.60156 12.673828 C 159.4915 12.226626 158.37406 11.827412 157.25391 11.451172 C 143.62926 4.3912626 128.38313 0.34887902 112.56445 0.021484375 z M 108.26758 5.3535156 C 117.20427 5.1439705 125.97408 6.2094108 134.38672 8.3691406 C 126.43832 8.7714915 118.48964 10.623417 110.75781 13.630859 C 102.85739 10.557479 94.730985 8.704891 86.609375 8.3574219 C 87.352192 8.1689755 88.084901 7.9610278 88.835938 7.7890625 C 95.342759 6.2991902 101.84628 5.5040806 108.26758 5.3535156 z M 82.662109 13.611328 C 89.627936 13.470615 96.670196 14.575386 103.63867 16.751953 C 103.42503 16.856728 103.20731 16.946212 102.99414 17.052734 C 92.213336 22.439935 82.000155 30.054132 72.886719 39.224609 C 65.424597 41.4227 58.211809 44.322138 51.441406 48.021484 C 48.925626 49.396106 46.471343 50.88238 44.085938 52.474609 C 47.366449 40.162319 53.565578 28.330595 63.337891 17.583984 C 63.507024 17.489836 63.67783 17.397879 63.847656 17.304688 C 69.980157 14.959832 76.285458 13.74014 82.662109 13.611328 z M 138.85156 13.611328 C 144.55182 13.726477 150.18903 14.756229 155.70312 16.636719 C 156.77355 17.205277 157.83482 17.788493 158.88281 18.396484 C 168.24236 28.93139 174.23551 40.478372 177.43359 52.488281 C 168.96563 47.159498 159.42111 42.920072 149.25586 39.861328 C 139.98449 30.406105 129.54864 22.564012 118.51953 17.052734 C 118.30689 16.946477 118.09006 16.856472 117.87695 16.751953 C 124.84485 14.57539 131.88574 13.470615 138.85156 13.611328 z M 110.75781 19.380859 C 112.55938 20.135788 114.35496 20.933867 116.13672 21.824219 C 123.9647 25.735886 131.54406 30.938878 138.60547 37.126953 C 131.6205 35.64074 124.43817 34.681512 117.19336 34.283203 C 114.35375 34.127085 111.50527 34.057092 108.6543 34.074219 C 100.18817 34.125078 91.722076 34.999953 83.449219 36.650391 C 90.356621 30.669744 97.750659 25.636076 105.37891 21.824219 C 107.16067 20.933867 108.95633 20.135788 110.75781 19.380859 z M 49.519531 26.919922 C 43.439445 36.555186 39.54072 46.79911 37.533203 57.269531 C 28.845178 64.236051 21.350788 72.868734 15.599609 83.232422 C 19.986908 61.085933 32.03894 41.11089 49.519531 26.919922 z M 172.80078 28.171875 C 188.06576 41.059046 199.46485 58.77853 204.42188 79.693359 C 199.43986 70.940508 192.38333 63.316797 183.92383 56.955078 C 181.98827 47.048412 178.37619 37.34198 172.80078 28.171875 z M 108.6875 39.408203 C 111.42815 39.390983 114.1685 39.459183 116.90039 39.609375 C 127.01143 40.165266 136.99118 41.873242 146.42188 44.601562 C 152.09231 50.508266 157.30743 57.055066 161.88672 64.070312 C 168.71148 74.525511 174.12225 86.000921 177.60938 97.871094 C 174.33544 112.03095 168.25112 125.79653 160.19336 138.14062 C 155.02814 146.05349 149.05652 153.37299 142.53125 159.8457 C 129.80035 163.21766 116.30642 164.4653 103.01172 163.73438 C 95.012413 163.29459 87.094592 162.13533 79.464844 160.32227 C 72.75115 153.73338 66.612627 146.2482 61.320312 138.14062 C 53.262554 125.79653 47.177653 112.03095 43.904297 97.871094 C 47.391423 86.000921 52.802195 74.525511 59.626953 64.070312 C 64.365414 56.811221 69.788746 50.059477 75.689453 43.994141 C 86.314568 41.003325 97.493581 39.478537 108.6875 39.408203 z M 65.337891 47.458984 C 61.695264 51.784502 58.288272 56.367121 55.162109 61.15625 C 49.885541 69.239697 45.417408 77.919003 41.96875 86.941406 C 41.56305 83.668775 41.297064 80.389625 41.220703 77.115234 C 41.088674 71.453736 41.47865 65.812979 42.408203 60.240234 C 46.071665 57.440585 49.940232 54.919428 54 52.701172 C 57.640556 50.711973 61.44257 48.990339 65.337891 47.458984 z M 156.66406 48.050781 C 163.74753 50.803467 170.38689 54.171962 176.35938 58.119141 C 177.27838 58.726506 178.17599 59.350872 179.0625 59.984375 C 180.02374 65.640035 180.42897 71.367154 180.29492 77.115234 C 180.21856 80.389625 179.95265 83.668775 179.54688 86.941406 C 176.09862 77.919003 171.63008 69.239697 166.35352 61.15625 C 163.36832 56.583072 160.12219 52.203361 156.66406 48.050781 z M 185.10938 64.730469 C 196.51517 74.587717 204.27038 86.992029 206.48633 101.54297 C 202.26843 114.83213 195.53779 125.77211 187.05078 134.59961 C 187.29511 131.39538 187.39323 128.18329 187.31836 124.97266 C 187.1046 115.80624 185.62245 106.6583 183.11719 97.740234 C 184.59493 90.976496 185.46472 84.1129 185.625 77.240234 C 185.72234 73.066368 185.55568 68.888097 185.10938 64.730469 z M 36.353516 65.330078 C 35.954179 69.289944 35.796007 73.266691 35.888672 77.240234 C 36.048946 84.1129 36.918483 90.976496 38.396484 97.740234 C 35.89084 106.6583 34.409078 115.80624 34.195312 124.97266 C 34.088753 129.54201 34.314092 134.11507 34.861328 138.66211 C 23.917185 129.22214 16.34834 117.43292 13.769531 103.66406 C 13.751637 102.7029 13.764545 101.74623 13.775391 100.78906 C 18.589162 86.205008 26.446836 74.483032 36.353516 65.330078 z M 41.318359 108.56836 C 44.965828 119.99944 50.283755 130.9891 56.855469 141.05664 C 60.648176 146.86688 64.857491 152.36924 69.396484 157.48047 C 59.9953 154.4054 51.224503 150.29354 43.554688 145.22461 C 42.677337 144.64477 41.822364 144.04702 40.974609 143.44336 C 39.855393 137.39319 39.383669 131.25655 39.527344 125.0957 C 39.65593 119.58183 40.275928 114.05342 41.318359 108.56836 z M 180.19531 108.56836 C 181.23774 114.05342 181.85774 119.58183 181.98633 125.0957 C 182.10453 130.16426 181.80809 135.21685 181.08008 140.21875 C 176.39988 144.21114 171.32095 147.68631 165.91406 150.64062 C 161.76333 152.90859 157.41764 154.85734 152.94141 156.53125 C 157.16428 151.68741 161.09936 146.51161 164.66016 141.05664 C 171.23187 130.9891 176.54836 119.99944 180.19531 108.56836 z M 205.85156 117.18164 C 202.2893 139.56096 190.93612 159.96466 174.02539 174.76562 C 180.29081 164.68192 184.17346 153.94031 186.02539 142.98047 C 193.94257 135.91357 200.7021 127.32846 205.85156 117.18164 z M 16.794922 125.86523 C 21.705066 133.75163 28.339165 140.66388 36.148438 146.50977 C 38.293199 156.71148 42.265803 166.67583 48.316406 176.05273 C 33.289536 163.47008 21.978274 146.22562 16.794922 125.86523 z M 179.51172 148.27344 C 176.3278 161.16914 169.97711 173.56595 159.73828 184.77734 C 146.14846 190.08354 131.66648 189.61233 117.54688 184.78125 C 127.40488 179.75315 136.77872 172.87728 145.25391 164.65039 C 153.35075 162.40281 161.16527 159.31502 168.47266 155.32227 C 172.30541 153.22805 175.99338 150.87437 179.51172 148.27344 z M 42.748047 151.02539 C 52.84179 157.33263 64.452092 162.09673 76.804688 165.16992 C 85.137233 173.16573 94.320105 179.85994 103.96875 184.78125 C 89.848587 189.6129 75.365777 190.08376 61.775391 184.77734 C 52.26748 174.3663 46.128673 162.93097 42.748047 151.02539 z M 134.54297 167.0957 C 128.16402 172.39969 121.40428 176.90833 114.44336 180.38672 C 113.22006 180.998 111.99079 181.5696 110.75781 182.11719 C 109.52428 181.56939 108.29415 180.99828 107.07031 180.38672 C 100.21279 176.95999 93.549417 172.53543 87.253906 167.33398 C 92.345026 168.18526 97.51543 168.77242 102.7207 169.05859 C 113.33787 169.64231 124.08822 169.01217 134.54297 167.0957 z " /><path
     d="m 151.47126,187.66389 a 7.9221854,7.9221854 0 0 1 7.92219,-7.92218 7.9221854,7.9221854 0 0 1 7.92218,7.92218 7.9221854,7.9221854 0 0 1 -7.92218,7.92219 7.9221854,7.9221854 0 0 1 -7.92219,-7.92219 z"
     id="path6"
     style="fill:#ffffff;stroke:#000000;stroke-width:6;stroke-dasharray:none;fill-opacity:1" /><path
     d="m 70.763135,187.66386 a 7.9221854,7.9221854 0 0 0 -7.922185,-7.92218 7.9221854,7.9221854 0 0 0 -7.922185,7.92218 7.9221854,7.9221854 0 0 0 7.922185,7.92219 7.9221854,7.9221854 0 0 0 7.922185,-7.92219 z"
     id="path10"
     style="fill:#ffffff;stroke:#000000;stroke-width:6;stroke-dasharray:none;fill-opacity:1" /><path
     id="path8"
     d="m 147.15039,148.85352 c -7.0775,0 -12.92187,5.84437 -12.92187,12.92187 0,7.0775 5.84437,12.92383 12.92187,12.92383 7.0775,0 12.92188,-5.84633 12.92188,-12.92383 0,-7.0775 -5.84438,-12.92187 -12.92188,-12.92187 z"
     style="fill:#ffffff;stroke:#000000;stroke-width:6;stroke-dasharray:none;fill-opacity:1" /><path
     id="path12"
     d="m 75.083984,148.85352 c -7.077502,0 -12.921875,5.84437 -12.921875,12.92187 0,7.0775 5.844373,12.92383 12.921875,12.92383 7.077503,0 12.921875,-5.84633 12.921875,-12.92383 0,-7.0775 -5.844372,-12.92187 -12.921875,-12.92187 z"
     style="fill:#ffffff;stroke:#000000;stroke-width:6;stroke-dasharray:none;fill-opacity:1" /><path
     d="m 150.91352,15.935285 a 7.9221854,7.9221854 0 0 0 7.92219,7.922185 7.9221854,7.9221854 0 0 0 7.92218,-7.922185 7.9221854,7.9221854 0 0 0 -7.92218,-7.9221858 7.9221854,7.9221854 0 0 0 -7.92219,7.9221858 z"
     id="path14"
     style="fill:#ffffff;stroke:#000000;stroke-width:6;stroke-dasharray:none;fill-opacity:1" /><path
     id="path16"
     d="M 146.59375 28.900391 C 139.51625 28.900391 133.67188 34.744763 133.67188 41.822266 C 133.67188 48.899768 139.51625 54.746094 146.59375 54.746094 C 153.67125 54.746094 159.51562 48.899768 159.51562 41.822266 C 159.51562 34.744763 153.67125 28.900391 146.59375 28.900391 z "
     style="fill:#ffffff;stroke:#000000;stroke-width:6;stroke-dasharray:none;fill-opacity:1" /><g
     id="g29"
     transform="translate(-3.3339275,0.84761979)"
     style="fill:#ffffff;stroke:#000000;stroke-width:6;stroke-dasharray:none;fill-opacity:1"><path
       id="path16-0-0"
       d="m 114.45111,77.196035 c -13.11492,0 -23.944796,10.829883 -23.944796,23.944815 0,13.11492 10.829876,23.94843 23.944796,23.94843 13.11493,0 23.94481,-10.83351 23.94481,-23.94843 0,-13.114932 -10.82988,-23.944815 -23.94481,-23.944815 z"
       style="stroke-width:6;fill:#ffffff;stroke:#000000;stroke-dasharray:none;fill-opacity:1" /></g><path
     d="M 70.205335,15.935285 A 7.9221854,7.9221854 0 0 1 62.28315,23.85747 7.9221854,7.9221854 0 0 1 54.360964,15.935285 7.9221854,7.9221854 0 0 1 62.28315,8.0130992 7.9221854,7.9221854 0 0 1 70.205335,15.935285 Z"
     id="path18"
     style="fill:#ffffff;stroke:#000000;stroke-width:6;stroke-dasharray:none;fill-opacity:1" /><path
     id="path20"
     d="M 74.525391 28.900391 C 67.447888 28.900391 61.603516 34.744763 61.603516 41.822266 C 61.603516 48.899768 67.447888 54.746094 74.525391 54.746094 C 81.602893 54.746094 87.447266 48.899768 87.447266 41.822266 C 87.447266 34.744763 81.602893 28.900391 74.525391 28.900391 z "
     style="fill:#ffffff;stroke:#000000;stroke-width:6;stroke-dasharray:none;fill-opacity:1" /><path
     d="M 16.423546,108.20337 A 7.9221854,7.9221854 0 0 0 20.00168,97.586451 7.9221854,7.9221854 0 0 0 9.3847594,94.008319 7.9221854,7.9221854 0 0 0 5.8066272,104.62524 7.9221854,7.9221854 0 0 0 16.423546,108.20337 Z"
     id="path22"
     style="fill:#ffffff;stroke:#000000;stroke-width:6;stroke-dasharray:none;fill-opacity:1" /><path
     id="path24"
     d="M 41.361328 88.201172 C 39.479499 88.216781 37.578264 88.645006 35.794922 89.529297 C 29.454151 92.673446 26.814837 100.50493 29.958984 106.8457 C 33.103135 113.18647 40.936572 115.82579 47.277344 112.68164 C 53.618115 109.53749 56.257433 101.70601 53.113281 95.365234 C 50.853426 90.807807 46.170448 88.161283 41.361328 88.201172 z "
     style="fill:#ffffff;stroke:#000000;stroke-width:6;stroke-dasharray:none;fill-opacity:1" /><path
     d="m 205.29105,94.008376 a 7.9221854,7.9221854 0 0 0 -3.57813,10.616924 7.9221854,7.9221854 0 0 0 10.61692,3.57813 7.9221854,7.9221854 0 0 0 3.57814,-10.616919 7.9221854,7.9221854 0 0 0 -10.61693,-3.578135 z"
     id="path26"
     style="fill:#ffffff;stroke:#000000;stroke-width:6;stroke-dasharray:none;fill-opacity:1" /><path
     id="path28"
     d="M 180.00586 88.203125 C 178.12403 88.218733 176.2228 88.645004 174.43945 89.529297 C 168.09868 92.673444 165.45937 100.50493 168.60352 106.8457 C 171.74766 113.18647 179.57915 115.82579 185.91992 112.68164 C 192.2607 109.5375 194.9 101.706 191.75586 95.365234 C 189.496 90.807807 184.81498 88.163237 180.00586 88.203125 z "
     style="fill:#ffffff;stroke:#000000;stroke-width:6;stroke-dasharray:none;fill-opacity:1" /></svg>
